<?xml version="1.0" standalone="no" ?><!DOCTYPE svg PUBLIC "-//W3C//DTD SVG 1.1//EN" "http://www.w3.org/Graphics/SVG/1.1/DTD/svg11.dtd"><svg xmlns="http://www.w3.org/2000/svg" xmlns:xlink="http://www.w3.org/1999/xlink" version="1.1" width="420" height="300" style="background-color: rgba(255,255,255,0.0)" xml:space="preserve"><desc>Created with Fabric.js 1.2.0</desc><defs></defs><g transform="translate(-397.9 -58.9)"><text font-family="'Arial'" font-size="12" style="stroke: none; stroke-width: 1; stroke-dasharray: ; stroke-linecap: butt; stroke-linejoin: miter; stroke-miterlimit: 10; fill: rgb(0,0,0); opacity: 1;" transform="translate(0 11)"></text></g><g transform="translate(204.6 154.6)"><path d="M 0 0 Q 0 0 0 0 Q 0 0 1 0.5 Q 2 1 5 1 Q 8 1 11.5 4.5 Q 15 8 17.5 9.5 Q 20 11 22.5 12.5 Q 25 14 28.5 16.5 Q 32 19 37 21 Q 42 23 47 24 Q 52 25 58.5 27.5 Q 65 30 94 37 Q 123 44 136 50 Q 149 56 154.5 58.5 Q 160 61 176 62 Q 192 63 206 63.5 Q 220 64 227.5 63.5 Q 235 63 244 60 Q 253 57 256 56.5 Q 259 56 259.5 56 Q 260 56 261 55 Q 262 54 262.5 54 Q 263 54 263.5 54 Q 264 54 264 54 Q 264 54 264 53.5 Q 264 53 264 52.5 Q 264 52 264 52 Q 264 52 264 51.5 Q 264 51 264 50 Q 264 49 264 48 Q 264 47 264 47 Q 264 47 264 46.5 Q 264 46 263.5 46 Q 263 46 263 46 Q 263 46 263 45.5 Q 263 45 263 45 Q 263 45 262.5 44.5 Q 262 44 262 44 Q 262 44 261.5 43 Q 261 42 260.5 41.5 Q 260 41 260 41 Q 260 41 258 38.5 Q 256 36 255.5 36 Q 255 36 255 35 Q 255 34 253.5 33.5 Q 252 33 251 31.5 Q 250 30 249 29.5 Q 248 29 245.5 28 Q 243 27 240.5 26.5 Q 238 26 237.5 26 Q 237 26 236 26 Q 235 26 233 26 Q 231 26 229 27 Q 227 28 226 28.5 Q 225 29 218.5 31.5 Q 212 34 209.5 34.5 Q 207 35 203 35.5 Q 199 36 194.5 37 Q 190 38 186.5 39 Q 183 40 181 40.5 Q 179 41 175.5 43.5 Q 172 46 168.5 48 Q 165 50 161.5 51 Q 158 52 149 59 Q 140 66 138 70 Q 136 74 129 82 Q 122 90 119.5 91.5 Q 117 93 114 94 Q 111 95 103.5 97.5 Q 96 100 93.5 101 Q 91 102 90.5 102.5 Q 90 103 88 104 Q 86 105 85.5 105.5 Q 85 106 84.5 106 Q 84 106 75.5 109.5 Q 67 113 65.5 113 Q 64 113 63 113 Q 62 113 61.5 113 Q 61 113 57.5 113 Q 54 113 51.5 113 Q 49 113 47.5 113 Q 46 113 45.5 113 Q 45 113 44 113 Q 43 113 43 112.5 Q 43 112 42 111.5 Q 41 111 37.5 108 Q 34 105 33.5 104.5 Q 33 104 32 103 Q 31 102 30.5 101.5 Q 30 101 30 100.5 Q 30 100 30 100 Q 30 100 30 99 Q 30 98 29.5 97 Q 29 96 29 95.5 Q 29 95 29 94.5 Q 29 94 29 93.5 Q 29 93 29 92 Q 29 91 29 89.5 Q 29 88 31 87.5 Q 33 87 34 87 Q 35 87 38.5 85 Q 42 83 44 81.5 Q 46 80 47.5 79.5 Q 49 79 53.5 78.5 Q 58 78 60.5 78 Q 63 78 65 78 Q 67 78 68.5 78 Q 70 78 72.5 80 Q 75 82 75.5 82 Q 76 82 82 83.5 Q 88 85 90.5 85 Q 93 85 104 89 Q 115 93 118.5 94 Q 122 95 123 95.5 Q 124 96 124.5 96.5 Q 125 97 128.5 98 Q 132 99 134.5 99 Q 137 99 141 100 Q 145 101 151 102 Q 157 103 159.5 104 Q 162 105 169 106.5 Q 176 108 183.5 110.5 Q 191 113 197.5 115.5 Q 204 118 207 120 Q 210 122 214.5 125.5 Q 219 129 221 131 Q 223 133 225 134.5 Q 227 136 228.5 137 Q 230 138 230.5 138 Q 231 138 231 138 Q 231 138 231.5 138.5 Q 232 139 242.5 142.5 L 253 146" style="stroke: rgb(255,255,0); stroke-width: 2; stroke-dasharray: ; stroke-linecap: round; stroke-linejoin: round; stroke-miterlimit: 10; fill: none; opacity: 1;" transform="translate(-132 -73)" stroke-linecap="round" /></g></svg>