<?xml version="1.0" standalone="no" ?><!DOCTYPE svg PUBLIC "-//W3C//DTD SVG 1.1//EN" "http://www.w3.org/Graphics/SVG/1.1/DTD/svg11.dtd"><svg xmlns="http://www.w3.org/2000/svg" xmlns:xlink="http://www.w3.org/1999/xlink" version="1.1" width="420" height="300" style="background-color: rgba(255,255,255,0.0)" xml:space="preserve"><desc>Created with Fabric.js 1.2.0</desc><defs></defs><g transform="translate(-397.9 -58.9)"><text font-family="'Arial'" font-size="12" style="stroke: none; stroke-width: 1; stroke-dasharray: ; stroke-linecap: butt; stroke-linejoin: miter; stroke-miterlimit: 10; fill: rgb(0,0,0); opacity: 1;" transform="translate(0 11)"></text></g><g transform="translate(168.6 118.6)"><path d="M 0 9 Q 0 9 0 9 Q 0 9 0 9 Q 0 9 0.5 10 Q 1 11 5.5 19 Q 10 27 20.5 52.5 Q 31 78 35 85 Q 39 92 39.5 91.5 Q 40 91 41.5 87 Q 43 83 50.5 67.5 Q 58 52 68 31 Q 78 10 81 5 Q 84 0 84 0 Q 84 0 84.5 0 Q 85 0 85 1 Q 85 2 86.5 7 Q 88 12 90 22.5 Q 92 33 94 40.5 Q 96 48 98.5 54 Q 101 60 104 73 Q 107 86 110 95 Q 113 104 114.5 105 Q 116 106 116 106 Q 116 106 116.5 106 Q 117 106 117.5 106 Q 118 106 123.5 100.5 Q 129 95 131.5 88 Q 134 81 135 75 Q 136 69 136 63.5 Q 136 58 136.5 45.5 Q 137 33 137 32 Q 137 31 137.5 31.5 Q 138 32 143.5 49.5 Q 149 67 152 76.5 Q 155 86 155.5 89 Q 156 92 156.5 94 Q 157 96 157 98.5 Q 157 101 157.5 101 Q 158 101 158.5 100 Q 159 99 160 98 Q 161 97 165 94 Q 169 91 173.5 82.5 Q 178 74 181 63 Q 184 52 185 45 Q 186 38 187.5 32.5 Q 189 27 189 25 Q 189 23 189.5 22 Q 190 21 190 21 Q 190 21 190.5 21 Q 191 21 191 21 Q 191 21 193 24.5 Q 195 28 198 38 Q 201 48 204 56 Q 207 64 211.5 71.5 Q 216 79 220 99 Q 224 119 224 119.5 Q 224 120 224 120 Q 224 120 224.5 120 Q 225 120 226 120 Q 227 120 227 121 Q 227 122 227.5 122 L 228 122" style="stroke: rgb(255,255,0); stroke-width: 2; stroke-dasharray: ; stroke-linecap: round; stroke-linejoin: round; stroke-miterlimit: 10; fill: none; opacity: 1;" transform="translate(-114 -61)" stroke-linecap="round" /></g></svg>