<?xml version="1.0" standalone="no" ?><!DOCTYPE svg PUBLIC "-//W3C//DTD SVG 1.1//EN" "http://www.w3.org/Graphics/SVG/1.1/DTD/svg11.dtd"><svg xmlns="http://www.w3.org/2000/svg" xmlns:xlink="http://www.w3.org/1999/xlink" version="1.1" width="420" height="300" style="background-color: rgba(255,255,255,0.0)" xml:space="preserve"><desc>Created with Fabric.js 1.2.0</desc><defs></defs><g transform="translate(-397.9 -54.9)"><text font-family="'Arial'" font-size="20" style="stroke: none; stroke-width: 1; stroke-dasharray: ; stroke-linecap: butt; stroke-linejoin: miter; stroke-miterlimit: 10; fill: rgb(0,0,0); opacity: 1;" transform="translate(0 19)"></text></g><g transform="translate(207.6 174.1)"><path d="M 44 64 Q 44 64 44 64 Q 44 64 43.5 64 Q 43 64 43 64 Q 43 64 42.5 64 Q 42 64 41 64 Q 40 64 40 64 Q 40 64 39 64 Q 38 64 36.5 63.5 Q 35 63 34.5 63 Q 34 63 33 63 Q 32 63 30 63.5 Q 28 64 27.5 64 Q 27 64 27 64 Q 27 64 26 65 Q 25 66 24.5 66.5 Q 24 67 23.5 67.5 Q 23 68 22.5 69.5 Q 22 71 22 71 Q 22 71 21.5 71.5 Q 21 72 20 73 Q 19 74 19 74.5 Q 19 75 18 75 Q 17 75 17 75.5 Q 17 76 17 76 Q 17 76 16 77 Q 15 78 14 79 Q 13 80 13 80.5 Q 13 81 12.5 81.5 Q 12 82 11 84 Q 10 86 10 86 Q 10 86 10 86 Q 10 86 10 86.5 Q 10 87 9.5 88 Q 9 89 9 89.5 Q 9 90 9 90 Q 9 90 8.5 90.5 Q 8 91 8 91.5 Q 8 92 8 92.5 Q 8 93 8 93.5 Q 8 94 8 94.5 Q 8 95 8 95.5 Q 8 96 8 96.5 Q 8 97 8 98.5 Q 8 100 8 101 Q 8 102 8 103.5 Q 8 105 8 107 Q 8 109 8 109 Q 8 109 8 110 Q 8 111 8 112.5 Q 8 114 8.5 116 Q 9 118 9 118.5 Q 9 119 9 120 Q 9 121 9 122.5 Q 9 124 9 126 Q 9 128 9 128 Q 9 128 9 128.5 Q 9 129 9 130 Q 9 131 9 132 Q 9 133 9 134 Q 9 135 9 135 Q 9 135 9 135.5 Q 9 136 9 136.5 Q 9 137 9 137.5 Q 9 138 9 138 Q 9 138 8.5 139.5 Q 8 141 8 141.5 Q 8 142 8 142.5 Q 8 143 7.5 144.5 Q 7 146 7 146.5 Q 7 147 7 148 Q 7 149 7 149 Q 7 149 6.5 151 Q 6 153 5.5 153 Q 5 153 5 153.5 Q 5 154 5 154.5 Q 5 155 5 156 Q 5 157 5 157 Q 5 157 5 159 Q 5 161 4.5 161.5 Q 4 162 4 162.5 Q 4 163 4 163.5 Q 4 164 4 164 Q 4 164 3.5 165 Q 3 166 3 167 Q 3 168 3 168.5 Q 3 169 2.5 169.5 Q 2 170 2 170 Q 2 170 2 170 Q 2 170 2 170.5 Q 2 171 2 171 Q 2 171 1.5 171 Q 1 171 1 171.5 Q 1 172 0.5 172 Q 0 172 0 172 Q 0 172 0 172 Q 0 172 0 172.5 Q 0 173 0 173 Q 0 173 0 172.5 Q 0 172 0.5 171.5 Q 1 171 1 170 Q 1 169 1.5 168 Q 2 167 2 166.5 Q 2 166 2.5 165.5 Q 3 165 3 164.5 Q 3 164 3 163.5 Q 3 163 3.5 162 Q 4 161 4 160 Q 4 159 4.5 158 Q 5 157 5 156 Q 5 155 5.5 154.5 Q 6 154 6 153 Q 6 152 6.5 152 Q 7 152 7 151.5 Q 7 151 7.5 150 Q 8 149 10.5 147 Q 13 145 13.5 144.5 Q 14 144 15.5 143 Q 17 142 18 141.5 Q 19 141 19.5 140.5 Q 20 140 21 139 Q 22 138 22 138 Q 22 138 22 137.5 Q 22 137 22.5 137 Q 23 137 23.5 136 Q 24 135 25 134.5 Q 26 134 26 133.5 Q 26 133 26 133 Q 26 133 26 132.5 Q 26 132 27 130 Q 28 128 28 127.5 Q 28 127 28.5 126 Q 29 125 29.5 123.5 Q 30 122 30 121.5 Q 30 121 30 120.5 Q 30 120 30.5 119 Q 31 118 31 117.5 Q 31 117 31 116 Q 31 115 31.5 113 Q 32 111 32 110.5 Q 32 110 33 108 Q 34 106 34 104.5 Q 34 103 34 102.5 Q 34 102 34 101.5 Q 34 101 34 101 Q 34 101 34.5 100.5 Q 35 100 35.5 100 Q 36 100 36 100 Q 36 100 36 100 Q 36 100 36.5 99.5 Q 37 99 37 99 Q 37 99 38 99 Q 39 99 39.5 98.5 Q 40 98 41 98 Q 42 98 42 98 Q 42 98 42.5 98 Q 43 98 43.5 98 Q 44 98 44 98 Q 44 98 44 98.5 Q 44 99 44 99 Q 44 99 44 99.5 Q 44 100 44 101 Q 44 102 44 103 Q 44 104 44 104.5 Q 44 105 44 106.5 Q 44 108 44 108.5 Q 44 109 44 111.5 Q 44 114 44 115 Q 44 116 44.5 118 Q 45 120 45 121 Q 45 122 45 122.5 Q 45 123 45.5 125 Q 46 127 46 130.5 Q 46 134 46.5 134.5 Q 47 135 47 135.5 Q 47 136 47 137 Q 47 138 47 139 Q 47 140 47 140 Q 47 140 47 140 Q 47 140 47 140.5 Q 47 141 47 142 Q 47 143 47 143 Q 47 143 47 145 Q 47 147 47 152.5 Q 47 158 47 159 Q 47 160 47 161 Q 47 162 47 163.5 Q 47 165 47 166 Q 47 167 47 167.5 Q 47 168 47 169 Q 47 170 47 170.5 Q 47 171 47 172.5 Q 47 174 47 175.5 Q 47 177 47.5 177.5 Q 48 178 48.5 180.5 Q 49 183 49.5 183.5 Q 50 184 50 184.5 Q 50 185 50 186 Q 50 187 50 188 Q 50 189 50 189 Q 50 189 50 190 Q 50 191 50 193 Q 50 195 50 196 Q 50 197 50 198 Q 50 199 50 199.5 Q 50 200 50 200.5 Q 50 201 50 201.5 Q 50 202 50 202.5 Q 50 203 50.5 203 Q 51 203 51.5 202 Q 52 201 52 201 Q 52 201 52.5 201 Q 53 201 58 199.5 Q 63 198 63.5 198 Q 64 198 64.5 198 Q 65 198 65 198 Q 65 198 68 198 Q 71 198 71.5 197.5 Q 72 197 72 197 Q 72 197 72.5 197 Q 73 197 73.5 197 Q 74 197 75.5 195.5 Q 77 194 77 194 Q 77 194 78.5 193.5 Q 80 193 81 193 Q 82 193 82.5 193 Q 83 193 83.5 193 Q 84 193 84.5 193 Q 85 193 85 193 Q 85 193 85 192 Q 85 191 85 191 Q 85 191 85 190.5 Q 85 190 85 189 Q 85 188 85 188 Q 85 188 84.5 187 Q 84 186 83.5 186 Q 83 186 83 185.5 Q 83 185 81.5 177.5 Q 80 170 80 169 Q 80 168 79.5 168 Q 79 168 79 168 Q 79 168 79 167.5 Q 79 167 79 166.5 Q 79 166 78.5 163.5 Q 78 161 78 159.5 Q 78 158 77.5 156 Q 77 154 77 153.5 Q 77 153 77 152.5 Q 77 152 77 150.5 Q 77 149 77 148 Q 77 147 77 147 Q 77 147 77 143.5 Q 77 140 77 137.5 Q 77 135 77 135 Q 77 135 77 134 Q 77 133 77 132.5 Q 77 132 77 132 Q 77 132 77 131.5 Q 77 131 77 130.5 Q 77 130 77 130 Q 77 130 77 129.5 Q 77 129 77 129 Q 77 129 77.5 129 Q 78 129 78 129 Q 78 129 79 129 Q 80 129 80.5 129 Q 81 129 81.5 129 Q 82 129 86 129 Q 90 129 92.5 128.5 Q 95 128 96 128 Q 97 128 99 128 Q 101 128 102 128 Q 103 128 106.5 127.5 Q 110 127 111 127 Q 112 127 112.5 127 Q 113 127 113.5 127 Q 114 127 114.5 127 Q 115 127 116.5 127 Q 118 127 119 127 Q 120 127 122.5 127 Q 125 127 132.5 126 Q 140 125 140.5 125 Q 141 125 141.5 125 Q 142 125 142.5 125 Q 143 125 144.5 124.5 Q 146 124 147 124 Q 148 124 149 124 Q 150 124 151.5 124 Q 153 124 157 124 Q 161 124 163.5 124.5 Q 166 125 166 125 Q 166 125 169.5 125 Q 173 125 173.5 125 Q 174 125 174.5 125.5 Q 175 126 176 126 Q 177 126 178 126.5 Q 179 127 179.5 127 Q 180 127 182 127 Q 184 127 184.5 127.5 Q 185 128 187.5 128 Q 190 128 190.5 128.5 Q 191 129 191 129.5 Q 191 130 191 130 Q 191 130 190.5 130 Q 190 130 190 131 Q 190 132 190 132 Q 190 132 189.5 135 Q 189 138 188 141 Q 187 144 187 144.5 Q 187 145 187 145 Q 187 145 187 153.5 Q 187 162 187 164 Q 187 166 187 168 Q 187 170 187 170.5 Q 187 171 186.5 172 Q 186 173 186 173 Q 186 173 186 175.5 Q 186 178 186 181 Q 186 184 186 184.5 Q 186 185 186 185 Q 186 185 186 185.5 Q 186 186 186 186 Q 186 186 186 186 Q 186 186 187 193.5 Q 188 201 188 202.5 Q 188 204 188 204.5 Q 188 205 188 205.5 Q 188 206 188 206.5 Q 188 207 188 207 Q 188 207 188.5 206.5 Q 189 206 189 206 Q 189 206 192.5 205.5 Q 196 205 198.5 205 Q 201 205 202 205 Q 203 205 205 205 Q 207 205 209.5 205.5 Q 212 206 213.5 206 Q 215 206 217 206 Q 219 206 220.5 206 Q 222 206 222 206 Q 222 206 223.5 205.5 Q 225 205 229.5 204.5 Q 234 204 234.5 203.5 Q 235 203 235 203 Q 235 203 235 203 Q 235 203 235 203 Q 235 203 233.5 201 Q 232 199 231.5 198.5 Q 231 198 230 196 Q 229 194 228 191.5 Q 227 189 224.5 180 Q 222 171 222 170.5 Q 222 170 222 169.5 Q 222 169 222 168 Q 222 167 222 166.5 Q 222 166 222 166 Q 222 166 222 160.5 Q 222 155 222.5 151.5 Q 223 148 223 146 Q 223 144 223.5 143 Q 224 142 224 140.5 Q 224 139 224 137 Q 224 135 224 132.5 Q 224 130 224 127.5 Q 224 125 224 123.5 Q 224 122 224 121.5 Q 224 121 224 119 Q 224 117 224 114 Q 224 111 223.5 106.5 Q 223 102 223 100.5 Q 223 99 222.5 97.5 Q 222 96 222 95.5 Q 222 95 222 95 Q 222 95 222 94.5 Q 222 94 221.5 93.5 Q 221 93 221 92.5 Q 221 92 221 91.5 Q 221 91 221 90 Q 221 89 221 88 Q 221 87 220.5 87 Q 220 87 220 87.5 Q 220 88 220 88 Q 220 88 220 88 Q 220 88 220 88 Q 220 88 220.5 88 Q 221 88 221 88 Q 221 88 221 88 Q 221 88 222 88 Q 223 88 223 88 Q 223 88 223.5 88 Q 224 88 224 88 Q 224 88 224 88 Q 224 88 224 88 Q 224 88 224.5 88 Q 225 88 225.5 88 Q 226 88 226 88 Q 226 88 226 88 Q 226 88 226.5 88 Q 227 88 228 88 Q 229 88 229 88 Q 229 88 230 88 Q 231 88 233 88.5 Q 235 89 236 89 Q 237 89 238 89 Q 239 89 240 89 Q 241 89 241.5 89 Q 242 89 243 89.5 Q 244 90 244 90 Q 244 90 244.5 90 Q 245 90 245 90 Q 245 90 245.5 91 Q 246 92 246.5 92 Q 247 92 247 92.5 Q 247 93 247.5 94 Q 248 95 248.5 95 Q 249 95 249.5 96.5 Q 250 98 250.5 98 Q 251 98 251 98 Q 251 98 251.5 98.5 Q 252 99 252 99 Q 252 99 252.5 99 Q 253 99 253 99.5 Q 253 100 253 100 Q 253 100 253.5 100 Q 254 100 254 100 Q 254 100 254.5 100 Q 255 100 255 100 Q 255 100 255.5 100.5 Q 256 101 256.5 101 Q 257 101 258.5 101.5 Q 260 102 261.5 103 Q 263 104 263 104 Q 263 104 265 105.5 Q 267 107 270 108 Q 273 109 275 109.5 Q 277 110 278.5 110.5 Q 280 111 280.5 111 Q 281 111 282.5 111 Q 284 111 284.5 111.5 Q 285 112 286 112 Q 287 112 287.5 112 Q 288 112 290 112 Q 292 112 292 112 Q 292 112 292 111.5 Q 292 111 292.5 111 Q 293 111 295.5 110.5 Q 298 110 298.5 109.5 Q 299 109 300.5 109 Q 302 109 304.5 108 Q 307 107 307 106.5 Q 307 106 307 106 Q 307 106 307 106 Q 307 106 307.5 105.5 Q 308 105 308 104.5 Q 308 104 308 103.5 Q 308 103 308 102.5 Q 308 102 307.5 101 Q 307 100 306.5 99.5 Q 306 99 306 99 Q 306 99 305.5 98 Q 305 97 303.5 97 Q 302 97 301.5 97 Q 301 97 300.5 96 Q 300 95 299 94.5 Q 298 94 296.5 93 Q 295 92 294.5 92 Q 294 92 292.5 91 Q 291 90 291 89.5 Q 291 89 291 88.5 Q 291 88 290.5 88 Q 290 88 290 87.5 Q 290 87 289 86 Q 288 85 287.5 85 Q 287 85 286.5 84 Q 286 83 286 83 Q 286 83 285.5 83 Q 285 83 285 82.5 Q 285 82 285 81 Q 285 80 284.5 80 Q 284 80 283.5 80 Q 283 80 283 80 Q 283 80 283 80 Q 283 80 283 80 Q 283 80 283.5 80 Q 284 80 284 80 Q 284 80 285 80.5 Q 286 81 286.5 81 Q 287 81 288 81.5 Q 289 82 293 82.5 Q 297 83 297.5 83 Q 298 83 300 83.5 Q 302 84 304.5 84.5 Q 307 85 309 85 Q 311 85 312 85 Q 313 85 314 85 Q 315 85 316.5 85.5 Q 318 86 318.5 86 Q 319 86 319.5 86 Q 320 86 320.5 86 Q 321 86 321.5 86 Q 322 86 324 86 Q 326 86 326 86 Q 326 86 326.5 86 Q 327 86 327 86 Q 327 86 327 85.5 Q 327 85 327 85 Q 327 85 327.5 84.5 Q 328 84 330 81.5 Q 332 79 333 78.5 Q 334 78 334 77.5 Q 334 77 334 77 Q 334 77 334 77 Q 334 77 334.5 76.5 Q 335 76 335 74.5 Q 335 73 336.5 68.5 Q 338 64 338 64 Q 338 64 338 64 Q 338 64 338 64 Q 338 64 337.5 64 Q 337 64 336.5 62.5 Q 336 61 336 61 Q 336 61 335.5 61 Q 335 61 334.5 61 Q 334 61 333.5 60.5 Q 333 60 333 59.5 Q 333 59 332 57 Q 331 55 330 55 Q 329 55 329 54.5 Q 329 54 328 53.5 Q 327 53 325.5 51.5 Q 324 50 322.5 49 Q 321 48 320 47.5 Q 319 47 317.5 46.5 Q 316 46 315.5 45.5 Q 315 45 313.5 44.5 Q 312 44 311 43.5 Q 310 43 308 42.5 Q 306 42 304 41.5 Q 302 41 300 41 Q 298 41 297.5 40.5 Q 297 40 296 40 Q 295 40 294.5 40 Q 294 40 293 39.5 Q 292 39 291.5 39 Q 291 39 290.5 39 Q 290 39 290 39 Q 290 39 289.5 39 Q 289 39 289 39 Q 289 39 288.5 38.5 Q 288 38 288 38 Q 288 38 286.5 37.5 Q 285 37 284.5 36.5 Q 284 36 284 36 Q 284 36 284 36 Q 284 36 284 35.5 Q 284 35 284 34.5 Q 284 34 284 34 Q 284 34 283.5 33 Q 283 32 283 31.5 Q 283 31 282 30 Q 281 29 281 28.5 Q 281 28 281 27.5 Q 281 27 280 25 Q 279 23 277 22 Q 275 21 275 21 Q 275 21 274 19.5 Q 273 18 271 17.5 Q 269 17 268.5 17 Q 268 17 267.5 17 Q 267 17 267 15.5 Q 267 14 267 14 Q 267 14 266.5 14 Q 266 14 266 14 Q 266 14 266 14 Q 266 14 265 14 Q 264 14 264 14 Q 264 14 264 13.5 Q 264 13 264 12 Q 264 11 263 10 Q 262 9 260.5 8 Q 259 7 256.5 5.5 Q 254 4 253 3.5 Q 252 3 251.5 2.5 Q 251 2 250.5 2 Q 250 2 249 2 Q 248 2 245.5 1.5 Q 243 1 242.5 1 Q 242 1 241.5 0.5 Q 241 0 239.5 0 Q 238 0 238 0 Q 238 0 237.5 0 Q 237 0 237 0 Q 237 0 236.5 0.5 Q 236 1 236 1 Q 236 1 235.5 2 Q 235 3 235 3 Q 235 3 234.5 3.5 Q 234 4 233.5 4.5 Q 233 5 233 5.5 Q 233 6 232.5 6 Q 232 6 231 6 Q 230 6 229.5 6.5 Q 229 7 228.5 7.5 Q 228 8 227.5 8 Q 227 8 226.5 8 Q 226 8 225.5 8.5 Q 225 9 225 9 Q 225 9 224 9 Q 223 9 222.5 10 Q 222 11 222 11 Q 222 11 221 11.5 Q 220 12 220 12 Q 220 12 219.5 12 Q 219 12 218.5 12.5 Q 218 13 217.5 13 Q 217 13 216.5 13 Q 216 13 215.5 13.5 Q 215 14 214.5 14 Q 214 14 214 14 Q 214 14 213.5 14 Q 213 14 212.5 14.5 Q 212 15 212 15 Q 212 15 212 15 Q 212 15 212 15 Q 212 15 211.5 15 Q 211 15 211 16 Q 211 17 210 17.5 Q 209 18 208.5 18.5 Q 208 19 207.5 20 Q 207 21 206.5 21.5 Q 206 22 206 23 Q 206 24 206 23.5 Q 206 23 206 22 Q 206 21 206 19 Q 206 17 206 16.5 Q 206 16 206 15 Q 206 14 205.5 14 Q 205 14 204.5 14 Q 204 14 203.5 14 Q 203 14 202 14 Q 201 14 201 14 Q 201 14 200.5 14 Q 200 14 199 14 Q 198 14 197.5 14 Q 197 14 197 14 Q 197 14 196.5 14 Q 196 14 195.5 14 Q 195 14 195 14.5 Q 195 15 195 16 Q 195 17 195 18 Q 195 19 195.5 20 Q 196 21 196.5 22 Q 197 23 197 23.5 Q 197 24 197 25 Q 197 26 197 28 Q 197 30 197 33.5 Q 197 37 197 38 Q 197 39 197 39.5 Q 197 40 197 40 Q 197 40 196 40.5 Q 195 41 194.5 41 Q 194 41 193.5 41 Q 193 41 192 41 Q 191 41 187 39.5 Q 183 38 179.5 37.5 Q 176 37 174 36.5 Q 172 36 171 35.5 Q 170 35 169 34 Q 168 33 168 33.5 Q 168 34 168 36 Q 168 38 168 39 Q 168 40 168.5 40.5 Q 169 41 169.5 41.5 Q 170 42 170 43 Q 170 44 170 45.5 Q 170 47 170 47 Q 170 47 169.5 47.5 Q 169 48 169 48.5 Q 169 49 168.5 49 Q 168 49 168 49 Q 168 49 167.5 49 Q 167 49 166.5 48.5 Q 166 48 165.5 47 Q 165 46 164 45.5 Q 163 45 162 44 Q 161 43 160 42.5 Q 159 42 158.5 41.5 Q 158 41 157.5 41 Q 157 41 157 41.5 Q 157 42 156.5 43.5 Q 156 45 156 45.5 Q 156 46 156 46 Q 156 46 156 47 Q 156 48 156 50 Q 156 52 155.5 53 Q 155 54 154.5 54 Q 154 54 154 54 Q 154 54 154 54 Q 154 54 153 54 Q 152 54 152 54 Q 152 54 151 53 Q 150 52 149 51.5 Q 148 51 146 50 Q 144 49 142 48.5 Q 140 48 139 47 Q 138 46 136 45.5 Q 134 45 133.5 45 Q 133 45 132.5 45 Q 132 45 132 45 Q 132 45 132 46 Q 132 47 131.5 47.5 Q 131 48 130.5 48.5 Q 130 49 129.5 49.5 Q 129 50 128.5 50.5 Q 128 51 127.5 52 Q 127 53 126.5 53 Q 126 53 125.5 53 Q 125 53 125 53 Q 125 53 125 53.5 Q 125 54 124.5 54 Q 124 54 124 54 Q 124 54 123.5 54 Q 123 54 122.5 54 Q 122 54 121.5 54 Q 121 54 119.5 54 Q 118 54 117 54 Q 116 54 115 54 Q 114 54 112.5 54.5 Q 111 55 106 56 Q 101 57 98.5 57.5 Q 96 58 94.5 58 Q 93 58 91 58.5 Q 89 59 88.5 59 Q 88 59 87 59.5 Q 86 60 85 60.5 Q 84 61 82 61 Q 80 61 78 61.5 Q 76 62 74 62.5 Q 72 63 70 63 Q 68 63 66.5 63 Q 65 63 63.5 63 Q 62 63 61 63 Q 60 63 59 63 Q 58 63 57.5 62.5 Q 57 62 57 62 Q 57 62 56 62 Q 55 62 54.5 62 Q 54 62 54 62 Q 54 62 53.5 62 Q 53 62 53 62 Q 53 62 53 62 Q 53 62 52.5 62 Q 52 62 52 62 Q 52 62 52 61.5 Q 52 61 52 61 Q 52 61 52 60.5 L 52 60" style="stroke: rgb(255,255,0); stroke-width: 10; stroke-dasharray: ; stroke-linecap: round; stroke-linejoin: round; stroke-miterlimit: 10; fill: none; opacity: 1;" transform="translate(-169 -103.5)" stroke-linecap="round" /></g><g transform="translate(278.6 93.35)"><path d="M 0 15.5 Q 0 15.5 0 15.5 Q 0 15.5 0.5 12.5 Q 1 9.5 1 9 Q 1 8.5 1 7.5 Q 1 6.5 1 6 Q 1 5.5 1 4.5 Q 1 3.5 1 3 Q 1 2.5 1 2 Q 1 1.5 1 1.5 Q 1 1.5 1.5 1.5 Q 2 1.5 2 1 Q 2 0.5 2.5 0 Q 3 -0.5 3.5 0 Q 4 0.5 4.5 1 Q 5 1.5 5 2.5 Q 5 3.5 5 3.5 Q 5 3.5 5 4.5 Q 5 5.5 5 6 Q 5 6.5 5 7.5 Q 5 8.5 5 8.5 Q 5 8.5 5.5 9 Q 6 9.5 6 9.5 Q 6 9.5 6 10 Q 6 10.5 7 11 Q 8 11.5 8 12 Q 8 12.5 8.5 12.5 Q 9 12.5 9.5 13.5 Q 10 14.5 11.5 15 Q 13 15.5 13.5 16 Q 14 16.5 14 16.5 Q 14 16.5 14 17 Q 14 17.5 14 17.5 Q 14 17.5 14 18 L 14 18.5" style="stroke: rgb(255,255,0); stroke-width: 10; stroke-dasharray: ; stroke-linecap: round; stroke-linejoin: round; stroke-miterlimit: 10; fill: none; opacity: 1;" transform="translate(-7 -9)" stroke-linecap="round" /></g></svg>