<?xml version="1.0" standalone="no" ?><!DOCTYPE svg PUBLIC "-//W3C//DTD SVG 1.1//EN" "http://www.w3.org/Graphics/SVG/1.1/DTD/svg11.dtd"><svg xmlns="http://www.w3.org/2000/svg" xmlns:xlink="http://www.w3.org/1999/xlink" version="1.1" width="420" height="300" style="background-color: rgba(255,255,255,0.0)" xml:space="preserve"><desc>Created with Fabric.js 1.2.0</desc><defs></defs><g transform="translate(-397.9 -58.9)"><text font-family="'Arial'" font-size="12" style="stroke: none; stroke-width: 1; stroke-dasharray: ; stroke-linecap: butt; stroke-linejoin: miter; stroke-miterlimit: 10; fill: rgb(0,0,0); opacity: 1;" transform="translate(0 11)"></text></g><g transform="translate(148.6 146.85)"><path d="M 12 0 Q 12 0 12 0 Q 12 0 13 1 Q 14 2 15.5 2 Q 17 2 18.5 3.5 Q 20 5 24 7.5 Q 28 10 31 12.5 Q 34 15 39 26 Q 44 37 45.5 39 Q 47 41 49 42 Q 51 43 51.5 43.5 Q 52 44 53.5 44 Q 55 44 57 44.5 Q 59 45 60.5 46 Q 62 47 63 47.5 Q 64 48 65 48.5 Q 66 49 67 49 Q 68 49 68.5 49.5 Q 69 50 70 50.5 Q 71 51 71.5 51.5 Q 72 52 73 52.5 Q 74 53 74 53.5 Q 74 54 74.5 54 Q 75 54 75 54 Q 75 54 75 54.5 Q 75 55 75 55 Q 75 55 75 55 Q 75 55 75 55 Q 75 55 75 55.5 Q 75 56 74.5 58 Q 74 60 74 61 Q 74 62 73.5 62.5 Q 73 63 72.5 65 Q 72 67 64.5 78.5 Q 57 90 52.5 93 Q 48 96 42.5 100.5 Q 37 105 37 105.5 Q 37 106 36 107 Q 35 108 34 110 Q 33 112 32 113.5 Q 31 115 30.5 116 Q 30 117 30 118 Q 30 119 30 120 Q 30 121 30 121.5 Q 30 122 29 123 Q 28 124 27.5 124.5 Q 27 125 27 124 Q 27 123 27 123 Q 27 123 27 122.5 Q 27 122 27 121.5 Q 27 121 27 120.5 Q 27 120 27 120 Q 27 120 27 119.5 Q 27 119 26 117.5 Q 25 116 25 116 Q 25 116 24.5 115.5 Q 24 115 24 114.5 Q 24 114 23.5 113.5 Q 23 113 22.5 112.5 Q 22 112 17 108 Q 12 104 11 103 Q 10 102 8.5 101.5 Q 7 101 6.5 100.5 Q 6 100 4.5 97.5 Q 3 95 2 93 Q 1 91 1 90.5 Q 1 90 1 88.5 Q 1 87 1 86 Q 1 85 1 84 Q 1 83 1 81 Q 1 79 1 77 Q 1 75 1 73.5 Q 1 72 0.5 71 Q 0 70 0 69.5 Q 0 69 0 68 Q 0 67 0 67 Q 0 67 0.5 67 Q 1 67 1.5 67 Q 2 67 2.5 67 Q 3 67 3.5 67 Q 4 67 4.5 67.5 Q 5 68 7 68 Q 9 68 11.5 68 Q 14 68 16.5 68 Q 19 68 26 69 Q 33 70 34.5 70.5 Q 36 71 37 71.5 Q 38 72 40 72.5 Q 42 73 43.5 73.5 Q 45 74 47.5 74 Q 50 74 55.5 75.5 Q 61 77 64.5 79.5 Q 68 82 68.5 82 Q 69 82 70 82 Q 71 82 73.5 83 Q 76 84 77 84 Q 78 84 80 85 Q 82 86 89.5 88 Q 97 90 98 90 Q 99 90 103 91 Q 107 92 107.5 92.5 Q 108 93 109 93 Q 110 93 110.5 93 Q 111 93 113 93 Q 115 93 116 93 Q 117 93 117 93 Q 117 93 117.5 93 Q 118 93 118 93 L 118 93" style="stroke: rgb(255,255,0); stroke-width: 2; stroke-dasharray: ; stroke-linecap: round; stroke-linejoin: round; stroke-miterlimit: 10; fill: none; opacity: 1;" transform="translate(-59 -62)" stroke-linecap="round" /></g><g transform="translate(-397.9 -58.9)"><text font-family="'Arial'" font-size="12" style="stroke: none; stroke-width: 1; stroke-dasharray: ; stroke-linecap: butt; stroke-linejoin: miter; stroke-miterlimit: 10; fill: rgb(0,255,51); opacity: 1;" transform="translate(0 11)"></text></g><ellipse rx="38.5" ry="61" style="stroke: rgb(255,255,0); stroke-width: 2; stroke-dasharray: ; stroke-linecap: butt; stroke-linejoin: miter; stroke-miterlimit: 10; fill: rgb(0,255,51); opacity: 1;" transform="translate(269.5 147)"/><ellipse rx="14.5" ry="39" style="stroke: rgb(204,0,51); stroke-width: 2; stroke-dasharray: ; stroke-linecap: butt; stroke-linejoin: miter; stroke-miterlimit: 10; fill: rgb(0,255,51); opacity: 1;" transform="translate(217.5 109)"/><g transform="translate(-397.9 -58.9)"><text font-family="'Arial'" font-size="12" style="stroke: none; stroke-width: 1; stroke-dasharray: ; stroke-linecap: butt; stroke-linejoin: miter; stroke-miterlimit: 10; fill: rgb(0,255,51); opacity: 1;" transform="translate(0 11)"></text></g><g transform="translate(127.6 182.35)"><path d="M 36 13.5 Q 36 13.5 36 13.5 Q 36 13.5 34 14.5 Q 32 15.5 30.5 17 Q 29 18.5 27.5 19.5 Q 26 20.5 24.5 22 Q 23 23.5 21.5 24 Q 20 24.5 18.5 25.5 Q 17 26.5 15.5 27.5 Q 14 28.5 12 30 Q 10 31.5 9 34 Q 8 36.5 6.5 42.5 Q 5 48.5 4 52 Q 3 55.5 3 56.5 Q 3 57.5 3 58.5 Q 3 59.5 2.5 60 Q 2 60.5 1.5 62 Q 1 63.5 1 64 Q 1 64.5 1 65.5 Q 1 66.5 0.5 67 Q 0 67.5 0 68.5 Q 0 69.5 0 73.5 Q 0 77.5 0 78.5 Q 0 79.5 0.5 81 Q 1 82.5 1 84 Q 1 85.5 1.5 87.5 Q 2 89.5 3 91 Q 4 92.5 4.5 93.5 Q 5 94.5 5.5 95 Q 6 95.5 7.5 96.5 Q 9 97.5 9.5 98.5 Q 10 99.5 13 100.5 Q 16 101.5 20.5 104.5 Q 25 107.5 26.5 108.5 Q 28 109.5 28.5 110 Q 29 110.5 30.5 111 Q 32 111.5 32.5 111.5 Q 33 111.5 34.5 111.5 Q 36 111.5 39 111.5 Q 42 111.5 44.5 111.5 Q 47 111.5 51.5 111.5 Q 56 111.5 58.5 111.5 Q 61 111.5 67 110.5 Q 73 109.5 74.5 109.5 Q 76 109.5 76.5 109 Q 77 108.5 78 108.5 Q 79 108.5 80 108.5 Q 81 108.5 81.5 107.5 Q 82 106.5 82.5 106.5 Q 83 106.5 86 105 Q 89 103.5 90.5 103 Q 92 102.5 93 100.5 Q 94 98.5 96.5 97 Q 99 95.5 100 93.5 Q 101 91.5 101.5 90 Q 102 88.5 102.5 87 Q 103 85.5 103 84.5 Q 103 83.5 103 82.5 Q 103 81.5 103 81 Q 103 80.5 103 79 Q 103 77.5 103 77.5 Q 103 77.5 100 77 Q 97 76.5 95.5 76 Q 94 75.5 91 74.5 Q 88 73.5 83 70.5 Q 78 67.5 77.5 67 Q 77 66.5 76 65.5 Q 75 64.5 74.5 64.5 Q 74 64.5 71.5 64.5 Q 69 64.5 68 64.5 Q 67 64.5 64 65 Q 61 65.5 60 66 Q 59 66.5 58.5 67 Q 58 67.5 56.5 68 Q 55 68.5 54.5 69 Q 54 69.5 49.5 75 Q 45 80.5 44.5 82 Q 44 83.5 42.5 88.5 Q 41 93.5 41 96 Q 41 98.5 40.5 99.5 Q 40 100.5 40 101 Q 40 101.5 40 102.5 Q 40 103.5 40 103.5 Q 40 103.5 39.5 104.5 Q 39 105.5 39 105.5 Q 39 105.5 39 106.5 Q 39 107.5 39 107.5 Q 39 107.5 39 108.5 Q 39 109.5 39 110.5 Q 39 111.5 39 112 Q 39 112.5 39 113.5 Q 39 114.5 39 115 Q 39 115.5 39 119 Q 39 122.5 39 123.5 Q 39 124.5 39 125 Q 39 125.5 39 126.5 Q 39 127.5 39.5 129 Q 40 130.5 41 133.5 Q 42 136.5 42.5 137.5 Q 43 138.5 43.5 139 Q 44 139.5 44.5 140.5 Q 45 141.5 48 142.5 Q 51 143.5 52 144 Q 53 144.5 55.5 145 Q 58 145.5 59.5 146 Q 61 146.5 61 147 Q 61 147.5 62 147.5 Q 63 147.5 63.5 148 Q 64 148.5 66.5 149 Q 69 149.5 69.5 149.5 Q 70 149.5 70.5 149.5 Q 71 149.5 72.5 149.5 Q 74 149.5 75 149.5 Q 76 149.5 78.5 149.5 Q 81 149.5 82 149.5 Q 83 149.5 84 149.5 Q 85 149.5 89.5 149.5 Q 94 149.5 101.5 149.5 Q 109 149.5 109.5 149.5 Q 110 149.5 110.5 149 Q 111 148.5 111 148.5 Q 111 148.5 112 148.5 Q 113 148.5 113 148.5 Q 113 148.5 117.5 147.5 Q 122 146.5 127 143.5 Q 132 140.5 132 140.5 Q 132 140.5 132.5 140.5 Q 133 140.5 147 140 Q 161 139.5 174.5 139.5 Q 188 139.5 190 139.5 Q 192 139.5 194 139.5 Q 196 139.5 199.5 139.5 Q 203 139.5 210 139.5 Q 217 139.5 220 139.5 Q 223 139.5 224.5 139.5 Q 226 139.5 227 139.5 Q 228 139.5 228 140 Q 228 140.5 229 141.5 Q 230 142.5 230 147 Q 230 151.5 230 152.5 Q 230 153.5 230 154.5 Q 230 155.5 230 157 Q 230 158.5 229 161.5 Q 228 164.5 227 167 Q 226 169.5 225.5 171 Q 225 172.5 224.5 174 Q 224 175.5 222.5 177.5 Q 221 179.5 218.5 180.5 Q 216 181.5 213.5 181.5 Q 211 181.5 207.5 182.5 Q 204 183.5 202 183.5 Q 200 183.5 198.5 184.5 Q 197 185.5 193.5 186 Q 190 186.5 189 186.5 Q 188 186.5 183.5 186.5 Q 179 186.5 177 186.5 Q 175 186.5 173.5 186.5 Q 172 186.5 170 186 Q 168 185.5 166 185.5 Q 164 185.5 163 185 Q 162 184.5 160.5 184 Q 159 183.5 158.5 183.5 Q 158 183.5 157.5 183 Q 157 182.5 157 182.5 Q 157 182.5 156.5 182.5 Q 156 182.5 155 181.5 Q 154 180.5 154 180.5 Q 154 180.5 153.5 179.5 Q 153 178.5 152.5 177.5 Q 152 176.5 151 173.5 Q 150 170.5 149.5 168 Q 149 165.5 148.5 164.5 Q 148 163.5 148 162 Q 148 160.5 147.5 159.5 Q 147 158.5 146 155.5 Q 145 152.5 141 148.5 Q 137 144.5 136 143.5 Q 135 142.5 134 142 Q 133 141.5 131 140 Q 129 138.5 129 137 Q 129 135.5 128 134 Q 127 132.5 126 129 Q 125 125.5 124 122 Q 123 118.5 123 118 Q 123 117.5 123 116.5 Q 123 115.5 122.5 113.5 Q 122 111.5 121 109 Q 120 106.5 119 106 Q 118 105.5 118 105 Q 118 104.5 117.5 103.5 Q 117 102.5 117 102.5 Q 117 102.5 117 102.5 Q 117 102.5 117.5 102.5 Q 118 102.5 119 100 Q 120 97.5 127 80.5 Q 134 63.5 139 55 Q 144 46.5 146.5 41.5 Q 149 36.5 150 34.5 Q 151 32.5 151 30 Q 151 27.5 151 22.5 Q 151 17.5 149.5 14.5 Q 148 11.5 146 8.5 Q 144 5.5 143.5 5.5 Q 143 5.5 142 4.5 Q 141 3.5 140 2.5 Q 139 1.5 139 1.5 Q 139 1.5 138.5 1.5 Q 138 1.5 137.5 1 Q 137 0.5 137 0 Q 137 -0.5 137 0 L 137 0.5" style="stroke: rgb(204,0,51); stroke-width: 2; stroke-dasharray: ; stroke-linecap: round; stroke-linejoin: round; stroke-miterlimit: 10; fill: none; opacity: 1;" transform="translate(-115 -93)" stroke-linecap="round" /></g></svg>